<svg xmlns="http://www.w3.org/2000/svg" xmlns:xlink="http://www.w3.org/1999/xlink" version="1.1" x="0px" y="0px" viewBox="0 0 66 82.5" enable-background="new 0 0 66 66" xml:space="preserve"><g><path d="M62.7,30.7c-1.1,0-2,0.8-2.2,1.8h-8.1v-3.9h3.2c0.3,0,0.5-0.2,0.5-0.5c0-0.3-0.2-0.5-0.5-0.5h-3.2v-3.9h3.2   c0.3,0,0.5-0.2,0.5-0.5c0-0.3-0.2-0.5-0.5-0.5h-3.2v-3.9h3.2c0.3,0,0.5-0.2,0.5-0.5c0-0.3-0.2-0.5-0.5-0.5h-3.2v-1.4   c0-1.5-1.2-2.7-2.7-2.7h-1.4v-3.2c0-0.3-0.2-0.5-0.5-0.5c-0.3,0-0.5,0.2-0.5,0.5v3.2h-3.9V9.3c1-0.2,1.8-1.1,1.8-2.2   c0-1.3-1-2.3-2.3-2.3c-1.3,0-2.3,1-2.3,2.3c0,1.1,0.8,2,1.8,2.2v4.3h-3.9v-3.2c0-0.3-0.2-0.5-0.5-0.5c-0.3,0-0.5,0.2-0.5,0.5v3.2   h-3.9V5.5c1-0.2,1.8-1.2,1.8-2.3C35.3,2,34.3,1,33,1c-1.3,0-2.3,1-2.3,2.3c0,1.1,0.8,2,1.8,2.3v8.1h-4v-3.2c0-0.3-0.2-0.5-0.5-0.5   c-0.3,0-0.5,0.2-0.5,0.5v3.2h-3.9V9.3c1-0.2,1.8-1.1,1.8-2.2c0-1.3-1-2.3-2.3-2.3c-1.3,0-2.3,1-2.3,2.3c0,1.1,0.8,2,1.8,2.2v4.3   h-3.9v-3.2c0-0.3-0.2-0.5-0.5-0.5c-0.3,0-0.5,0.2-0.5,0.5v3.2h-1.4c-1.5,0-2.7,1.2-2.7,2.7v1.4h-3.2c-0.3,0-0.5,0.2-0.5,0.5   c0,0.3,0.2,0.5,0.5,0.5h3.2v3.9h-3.2c-0.3,0-0.5,0.2-0.5,0.5c0,0.3,0.2,0.5,0.5,0.5h3.2v3.9h-3.2c-0.3,0-0.5,0.2-0.5,0.5   c0,0.3,0.2,0.5,0.5,0.5h3.2v3.9H5.5c-0.2-1-1.1-1.8-2.2-1.8C2,30.7,1,31.7,1,33c0,1.3,1,2.3,2.3,2.3c1.1,0,2-0.8,2.2-1.8h8.1v3.9   h-3.2c-0.3,0-0.5,0.2-0.5,0.5c0,0.3,0.2,0.5,0.5,0.5h3.2v4h-3.2c-0.3,0-0.5,0.2-0.5,0.5c0,0.3,0.2,0.5,0.5,0.5h3.2v3.9h-3.2   c-0.3,0-0.5,0.2-0.5,0.5c0,0.3,0.2,0.5,0.5,0.5h3.2v1.4c0,1.5,1.2,2.7,2.7,2.7h1.4v3.2c0,0.3,0.2,0.5,0.5,0.5   c0.3,0,0.5-0.2,0.5-0.5v-3.2h3.9v4.3c-1,0.2-1.8,1.1-1.8,2.2c0,1.3,1,2.3,2.3,2.3c1.3,0,2.3-1,2.3-2.3c0-1.1-0.8-2-1.8-2.2v-4.3   h3.9v3.2c0,0.3,0.2,0.5,0.5,0.5c0.3,0,0.5-0.2,0.5-0.5v-3.2h4v8.1c-1,0.2-1.8,1.1-1.8,2.2c0,1.3,1,2.3,2.3,2.3c1.3,0,2.3-1,2.3-2.3   c0-1.1-0.8-2-1.8-2.2v-8.1h3.9v3.2c0,0.3,0.2,0.5,0.5,0.5c0.3,0,0.5-0.2,0.5-0.5v-3.2h3.9v4.3c-1,0.2-1.8,1.1-1.8,2.2   c0,1.3,1,2.3,2.3,2.3c1.3,0,2.3-1,2.3-2.3c0-1.1-0.8-2-1.8-2.2v-4.3h3.9v3.2c0,0.3,0.2,0.5,0.5,0.5c0.3,0,0.5-0.2,0.5-0.5v-3.2h1.4   c1.5,0,2.7-1.2,2.7-2.7v-1.4h3.2c0.3,0,0.5-0.2,0.5-0.5c0-0.3-0.2-0.5-0.5-0.5h-3.2v-3.9h3.2c0.3,0,0.5-0.2,0.5-0.5   c0-0.3-0.2-0.5-0.5-0.5h-3.2v-4h3.2c0.3,0,0.5-0.2,0.5-0.5c0-0.3-0.2-0.5-0.5-0.5h-3.2v-3.9h8.1c0.2,1,1.1,1.8,2.2,1.8   c1.3,0,2.3-1,2.3-2.3C65,31.7,64,30.7,62.7,30.7z M17.1,49.4c-0.3,0-0.5-0.2-0.5-0.5s0.2-0.5,0.5-0.5c0.3,0,0.5,0.2,0.5,0.5   S17.4,49.4,17.1,49.4z M17.1,17.7c-0.3,0-0.5-0.2-0.5-0.5s0.2-0.5,0.5-0.5c0.3,0,0.5,0.2,0.5,0.5S17.4,17.7,17.1,17.7z M19.6,42.5   c0,0.3-0.2,0.5-0.5,0.5c-0.3,0-0.5-0.2-0.5-0.5V31.7c0-0.3,0.2-0.5,0.5-0.5c0.3,0,0.5,0.2,0.5,0.5V42.5z M19.6,28.1   c0,0.3-0.2,0.5-0.5,0.5c-0.3,0-0.5-0.2-0.5-0.5v-4.6c0-0.3,0.2-0.5,0.5-0.5c0.3,0,0.5,0.2,0.5,0.5V28.1z M31.7,18.6h10.8   c0.3,0,0.5,0.2,0.5,0.5c0,0.3-0.2,0.5-0.5,0.5H31.7c-0.3,0-0.5-0.2-0.5-0.5C31.2,18.9,31.4,18.6,31.7,18.6z M42.4,24.1   c0,0.3-0.2,0.5-0.5,0.5h-3.8c-0.3,0-0.5-0.2-0.5-0.5c0-0.3,0.2-0.5,0.5-0.5h3.8C42.1,23.6,42.4,23.9,42.4,24.1z M23.5,18.6h4.6   c0.3,0,0.5,0.2,0.5,0.5c0,0.3-0.2,0.5-0.5,0.5h-4.6c-0.3,0-0.5-0.2-0.5-0.5C23,18.9,23.2,18.6,23.5,18.6z M28.1,47.4h-4.6   c-0.3,0-0.5-0.2-0.5-0.5s0.2-0.5,0.5-0.5h4.6c0.3,0,0.5,0.2,0.5,0.5S28.3,47.4,28.1,47.4z M23.6,41.9c0-0.3,0.2-0.5,0.5-0.5h3.8   c0.3,0,0.5,0.2,0.5,0.5s-0.2,0.5-0.5,0.5h-3.8C23.9,42.4,23.6,42.1,23.6,41.9z M28.9,37l-6-3.6l0-0.9l6-3.6l0.5,0.9L24.1,33   l5.3,3.2L28.9,37z M30.1,39.9l4.8-14.1l0.9,0.3l-4.8,14.1L30.1,39.9z M42.5,47.4H31.7c-0.3,0-0.5-0.2-0.5-0.5s0.2-0.5,0.5-0.5h10.8   c0.3,0,0.5,0.2,0.5,0.5S42.8,47.4,42.5,47.4z M37.1,37l-0.5-0.9l5.3-3.2l-5.3-3.2l0.5-0.9l6,3.6l0,0.9L37.1,37z M47.4,42.5   c0,0.3-0.2,0.5-0.5,0.5c-0.3,0-0.5-0.2-0.5-0.5V31.7c0-0.3,0.2-0.5,0.5-0.5c0.3,0,0.5,0.2,0.5,0.5V42.5z M47.4,28.1   c0,0.3-0.2,0.5-0.5,0.5c-0.3,0-0.5-0.2-0.5-0.5v-4.6c0-0.3,0.2-0.5,0.5-0.5c0.3,0,0.5,0.2,0.5,0.5V28.1z M48.9,49.4   c-0.3,0-0.5-0.2-0.5-0.5s0.2-0.5,0.5-0.5c0.3,0,0.5,0.2,0.5,0.5S49.1,49.4,48.9,49.4z M48.9,17.7c-0.3,0-0.5-0.2-0.5-0.5   s0.2-0.5,0.5-0.5c0.3,0,0.5,0.2,0.5,0.5S49.1,17.7,48.9,17.7z"/></g><text x="0" y="81" fill="#000000" font-size="5px" font-weight="bold" font-family="'Helvetica Neue', Helvetica, Arial-Unicode, Arial, Sans-serif">Created by Vectors Point</text><text x="0" y="86" fill="#000000" font-size="5px" font-weight="bold" font-family="'Helvetica Neue', Helvetica, Arial-Unicode, Arial, Sans-serif">from the Noun Project</text></svg>