<svg xmlns="http://www.w3.org/2000/svg" viewBox="0 0 512 640" x="0px" y="0px"><path d="M96.375,318.115a8,8,0,0,0-6.045,9.352,119.919,119.919,0,0,0,94.2,94.2,7.989,7.989,0,0,0,9.352-6.045c7.108-30.743.253-57.605-19.825-77.684S127.12,311.007,96.375,318.115ZM179.79,404.1A103.979,103.979,0,0,1,107.9,332.21c21.926-3.16,40.354,2.556,54.843,17.045S182.951,382.166,179.79,404.1Z"/><path d="M292.854,219.147a119.438,119.438,0,0,0-61.387-32.817,8,8,0,0,0-9.352,6.045c-7.108,30.743-.253,57.6,19.825,77.684,14.935,14.934,33.62,22.552,54.865,22.552a101.283,101.283,0,0,0,22.82-2.726,8,8,0,0,0,6.045-9.352A119.441,119.441,0,0,0,292.854,219.147Zm-39.6,39.6c-14.49-14.489-20.206-32.911-17.045-54.843A103.979,103.979,0,0,1,308.1,275.79C286.17,278.949,267.744,273.235,253.255,258.745Z"/><path d="M319.625,318.115c-30.744-7.109-57.605-.252-77.685,19.826s-26.933,46.941-19.825,77.684a7.989,7.989,0,0,0,9.352,6.045,119.919,119.919,0,0,0,94.2-94.2A8,8,0,0,0,319.625,318.115Zm-38.086,59.424A103.48,103.48,0,0,1,236.21,404.1c-3.161-21.932,2.555-40.354,17.045-54.843,11.907-11.907,26.468-17.89,43.452-17.89a79.9,79.9,0,0,1,11.391.845A103.466,103.466,0,0,1,281.539,377.539Z"/><path d="M491.5,423.741l-11.58-5.226a60.92,60.92,0,0,0-1.764-17.638l10.317-7.416A8,8,0,0,0,490.3,382.3l-18.679-25.983a8,8,0,0,0-11.166-1.826l-10.333,7.428a64.387,64.387,0,0,0-16.141-7.316l-1.263-12.63a8.009,8.009,0,0,0-8.756-7.164l-26.193,2.619a8,8,0,0,0-4.013-8.251l-18.419-10.225a169.222,169.222,0,0,0,0-29.9l18.419-10.225a8,8,0,0,0,3.845-9.066l-8.283-30.909a7.986,7.986,0,0,0-7.862-5.929l-21.029.354a167.238,167.238,0,0,0-14.976-25.9l10.832-18.054a8,8,0,0,0-1.2-9.773l-22.627-22.627a8,8,0,0,0-9.773-1.2l-18.054,10.832a167.25,167.25,0,0,0-25.9-14.976l.353-21.03a8,8,0,0,0-5.929-7.862L242.238,114.4a8,8,0,0,0-9.064,3.845l-10.226,18.419a169.222,169.222,0,0,0-29.9,0l-4.8-8.649-8.171-32.684c.428-.78.819-1.583,1.182-2.4l73.072-18.268a31.925,31.925,0,0,0,33,1.417L366.06,95.761a7.989,7.989,0,0,0,9.7-5.821l1.824-7.3L390.3,85.821l-6.06,24.239a8,8,0,0,0,5.821,9.7l32,8,3.88-15.522-24.239-6.06L413.821,57.7l24.239,6.059,3.88-15.522-32-8a8,8,0,0,0-9.7,5.821L394.179,70.3,381.466,67.12l2.3-9.18a8,8,0,0,0-5.821-9.7L296.946,27.99a31.946,31.946,0,0,0-47.594-2.574L157.257,48.439a31.981,31.981,0,0,0-25.266,56.507l5.578,22.315a7.98,7.98,0,0,0-.645,3.284l.353,21.03a167.25,167.25,0,0,0-25.9,14.976L93.322,155.719a8,8,0,0,0-9.773,1.2L60.922,179.549a8,8,0,0,0-1.2,9.773l10.832,18.054a167.238,167.238,0,0,0-14.976,25.9l-21.029-.354H34.41a8,8,0,0,0-7.726,5.93L18.4,269.761a8,8,0,0,0,3.845,9.066l18.419,10.225a169.222,169.222,0,0,0,0,29.9L22.246,329.173a8,8,0,0,0-3.845,9.066l8.283,30.909a8,8,0,0,0,7.726,5.93h.136l21.029-.354a167.238,167.238,0,0,0,14.976,25.9L59.719,418.678a8,8,0,0,0,1.2,9.773l22.627,22.627a8,8,0,0,0,9.773,1.2l18.054-10.832a167.25,167.25,0,0,0,25.9,14.976l-.353,21.03a8,8,0,0,0,5.929,7.862l30.909,8.282a8,8,0,0,0,9.064-3.845l10.226-18.419a169.222,169.222,0,0,0,29.9,0l10.226,18.419a7.99,7.99,0,0,0,9.064,3.845l30.909-8.282a8,8,0,0,0,5.929-7.862l-.353-21.03a167.25,167.25,0,0,0,25.9-14.976l18.054,10.832a8,8,0,0,0,9.773-1.2l7.993-7.993c-.054.217-.105.435-.141.658a8,8,0,0,0,1.4,5.961l18.679,25.983a8,8,0,0,0,11.166,1.826l10.333-7.428a64.438,64.438,0,0,0,16.141,7.316l1.263,12.63a8,8,0,0,0,7.95,7.2q.4,0,.806-.04l31.841-3.184a8,8,0,0,0,7.164-8.757l-1.263-12.629a64.461,64.461,0,0,0,14.372-10.367l11.6,5.235a8,8,0,0,0,10.583-4L495.5,434.324A8,8,0,0,0,491.5,423.741ZM366.3,61.821,362.179,78.3l-61.841-15.46A31.793,31.793,0,0,0,304,48c0-.593-.019-1.181-.051-1.766ZM272,32a16,16,0,1,1-16,16A16.019,16.019,0,0,1,272,32ZM242.8,61.055,183.719,75.824a31.852,31.852,0,0,0-6.761-15.818l63.277-15.818A32.189,32.189,0,0,0,240,48,31.812,31.812,0,0,0,242.8,61.055ZM152,64a16,16,0,1,1-16,16A16.019,16.019,0,0,1,152,64Zm0,48a31.79,31.79,0,0,0,14.839-3.662l40.917,163.668a31.8,31.8,0,0,0-16.349,4.641l-41.174-164.7C150.818,111.981,151.407,112,152,112Zm16.724,139.881a66.232,66.232,0,0,1-5.979,6.864c-14.49,14.49-32.913,20.207-54.843,17.045a104.069,104.069,0,0,1,50.937-63.448ZM208,288a16,16,0,1,1-16,16A16.019,16.019,0,0,1,208,288ZM325.554,435.348,308.312,425a8,8,0,0,0-8.934.474A151.142,151.142,0,0,1,267.506,443.9a8,8,0,0,0-4.87,7.5l.338,20.079-18.843,5.048-9.762-17.583a8,8,0,0,0-7.957-4.059,152.951,152.951,0,0,1-36.824,0,7.992,7.992,0,0,0-7.957,4.059l-9.762,17.583-18.843-5.048.338-20.079a8,8,0,0,0-4.87-7.5,151.142,151.142,0,0,1-31.872-18.427,8,8,0,0,0-8.934-.474L90.446,435.348,76.652,421.554,87,404.311a8,8,0,0,0-.474-8.933A151.113,151.113,0,0,1,68.1,363.506a8.056,8.056,0,0,0-7.5-4.87l-20.079.338-5.048-18.843,17.583-9.761a8,8,0,0,0,4.058-7.958,153.156,153.156,0,0,1,0-36.824,8,8,0,0,0-4.058-7.958l-17.583-9.761,5.048-18.843,20.079.338h.135a8,8,0,0,0,7.363-4.871,151.113,151.113,0,0,1,18.426-31.872A8,8,0,0,0,87,203.689L76.652,186.446l13.794-13.794L107.688,183a8,8,0,0,0,8.934-.474,151.134,151.134,0,0,1,30.327-17.742l7.905,31.617A120.01,120.01,0,0,0,90.33,280.533a8,8,0,0,0,6.045,9.352,101.283,101.283,0,0,0,22.82,2.726c20.945,0,39.4-7.422,54.226-21.943L178.6,291.38a32,32,0,1,0,46.965-14.11L194.4,152.611a153.084,153.084,0,0,1,32.013.5,8,8,0,0,0,7.957-4.059l9.762-17.583,18.843,5.048-.338,20.079a8,8,0,0,0,4.87,7.5,151.142,151.142,0,0,1,31.872,18.427,8,8,0,0,0,8.934.474l17.242-10.346,13.794,13.794L329,203.689a8,8,0,0,0,.474,8.933A151.113,151.113,0,0,1,347.9,244.494a8.028,8.028,0,0,0,7.5,4.87l20.079-.338,5.048,18.843-17.583,9.761a8,8,0,0,0-4.058,7.958,153.156,153.156,0,0,1,0,36.824,8,8,0,0,0,4.058,7.958l17.583,9.761-5.048,18.843-20.079-.338h-.135a8,8,0,0,0-7.363,4.871,151.113,151.113,0,0,1-18.426,31.872,8,8,0,0,0-.474,8.933l10.346,17.243Zm23.175-.548,4.847-4.847c.089.39.172.78.269,1.17Zm122.315,14.818-9.47-4.274a8,8,0,0,0-9.338,2.055,48.139,48.139,0,0,1-18.012,12.991,8,8,0,0,0-4.925,8.2l1.029,10.3-15.92,1.592-1.03-10.3a8,8,0,0,0-6.451-7.06,48.131,48.131,0,0,1-20.228-9.168,8,8,0,0,0-9.56-.164l-8.436,6.064-9.34-12.992,8.432-6.06a8,8,0,0,0,2.892-9.108,46.348,46.348,0,0,1-2.211-22.1,8,8,0,0,0-4.638-8.355l-9.463-4.27,6.581-14.584,9.47,4.274a8,8,0,0,0,9.338-2.055,48.139,48.139,0,0,1,18.012-12.991,8,8,0,0,0,4.925-8.2l-1.029-10.3,15.92-1.592,1.03,10.3a8,8,0,0,0,6.451,7.06,48.143,48.143,0,0,1,20.228,9.167,8,8,0,0,0,9.56.165l8.436-6.064,9.34,12.992-8.432,6.06a8,8,0,0,0-2.892,9.108,46.348,46.348,0,0,1,2.211,22.1,8,8,0,0,0,4.638,8.355l9.463,4.27Z"/><path d="M412.816,384.159A32,32,0,0,0,415.976,448q1.59,0,3.208-.16a32,32,0,1,0-6.368-63.682Zm15.568,41.973a16,16,0,1,1,3.537-11.724A15.9,15.9,0,0,1,428.384,426.132Z"/><text x="0" y="527" fill="#000000" font-size="5px" font-weight="bold" font-family="'Helvetica Neue', Helvetica, Arial-Unicode, Arial, Sans-serif">Created by mynamepong</text><text x="0" y="532" fill="#000000" font-size="5px" font-weight="bold" font-family="'Helvetica Neue', Helvetica, Arial-Unicode, Arial, Sans-serif">from the Noun Project</text></svg>