<svg xmlns="http://www.w3.org/2000/svg" viewBox="0 0 64 80" x="0px" y="0px"><g><rect x="14" y="58" width="10" height="2"/><rect x="15" y="13" width="2" height="2"/><rect x="13" y="9" width="6" height="2"/><rect x="15" y="21" width="2" height="2"/><rect x="45" y="17" width="6" height="2"/><rect x="15" y="4" width="2" height="3"/><rect x="13" y="17" width="6" height="2"/><rect x="31" y="4" width="2" height="3"/><rect x="47" y="21" width="2" height="2"/><rect x="29" y="9" width="6" height="2"/><rect x="31" y="13" width="2" height="2"/><rect x="31" y="21" width="2" height="2"/><rect x="47" y="13" width="2" height="2"/><rect x="29" y="17" width="6" height="2"/><rect x="45" y="9" width="6" height="2"/><rect x="7" y="25" width="50" height="2"/><path d="M10,29V52H54V29Zm4,21H12V31h2Zm4,0H16V31h2Zm26-1a1,1,0,0,1-1,1H21a1,1,0,0,1-1-1V32a1,1,0,0,1,1-1H43a1,1,0,0,1,1,1Zm4,1H46V31h2Zm4,0H50V31h2Z"/><path d="M22,48H42V33H22Zm18-2H38V44h2ZM31,35h5a1,1,0,0,1,.8,1.6L35,39h3a1,1,0,0,1,.65,1.759l-7,6A1,1,0,0,1,30,46V43H26a1,1,0,0,1-.769-1.641l5-6A1,1,0,0,1,31,35Zm-7,0h2v2H24Z"/><rect x="47" y="4" width="2" height="3"/><path d="M32,42v1.826L35.3,41H33a1,1,0,0,1-.8-1.6L34,37H31.469l-3.334,4H31A1,1,0,0,1,32,42Z"/><rect x="8" y="54" width="48" height="2"/><rect x="40" y="58" width="10" height="2"/></g><text x="0" y="79" fill="#000000" font-size="5px" font-weight="bold" font-family="'Helvetica Neue', Helvetica, Arial-Unicode, Arial, Sans-serif">Created by Smalllike</text><text x="0" y="84" fill="#000000" font-size="5px" font-weight="bold" font-family="'Helvetica Neue', Helvetica, Arial-Unicode, Arial, Sans-serif">from the Noun Project</text></svg>