<svg xmlns="http://www.w3.org/2000/svg" xmlns:xlink="http://www.w3.org/1999/xlink" version="1.1" x="0px" y="0px" viewBox="0 0 64 80" style="enable-background:new 0 0 64 64;" xml:space="preserve"><g><path d="M43,60c0,0.552,0.449,1,1,1h4c0.551,0,1-0.448,1-1v-3h-6V60z"/><path d="M15,60c0,0.552,0.449,1,1,1h4c0.551,0,1-0.448,1-1v-3h-6V60z"/><path d="M17,48v-2c0-0.552-0.449-1-1-1h-5v4h5C16.551,49,17,48.552,17,48z"/><path d="M42.92,39h5.947l-1.203-9.62C47.353,26.883,45.22,25,42.703,25H21.297c-2.517,0-4.649,1.883-4.961,4.38L15.133,39H29.08   c0.488-3.386,3.401-6,6.92-6S42.432,35.614,42.92,39z"/><path d="M31.101,39h9.798c-0.465-2.279-2.484-4-4.899-4S31.566,36.721,31.101,39z"/><path d="M13.617,35H8c-0.551,0-1,0.448-1,1c0,1.654,1.346,3,3,3h3.117L13.617,35z"/><path d="M47,46v2c0,0.552,0.449,1,1,1h5.001L53,45h-5C47.449,45,47,45.448,47,46z"/><path d="M56,35h-5.617l0.5,4H54c1.654,0,3-1.346,3-3C57,35.448,56.551,35,56,35z"/><path d="M48,51c-1.654,0-3-1.346-3-3v-2c0-1.654,1.346-3,3-3h4.816c-0.414-1.161-1.514-2-2.816-2H14c-1.302,0-2.402,0.839-2.816,2   H16c1.654,0,3,1.346,3,3v2c0,1.654-1.346,3-3,3h-5v4h42.001l-0.001-4H48z M39,50H25c-1.657,0-3-1.343-3-3s1.343-3,3-3h14   c1.657,0,3,1.343,3,3S40.657,50,39,50z"/><path d="M55,20c-1.654,0-3,1.346-3,3c0,1.531,1.157,2.783,2.64,2.964C54.874,27.289,55,28.642,55,30c0,1.005-0.085,2.007-0.214,3   H56c0.273,0,0.533,0.049,0.785,0.117C56.914,32.085,57,31.043,57,30c0-1.503-0.142-3.001-0.407-4.468C57.435,25,58,24.068,58,23   C58,21.346,56.654,20,55,20z"/><path d="M50.05,18.051l1.414,1.414C52.409,18.521,53.665,18,55,18s2.591,0.521,3.536,1.465l1.414-1.414   C58.627,16.729,56.87,16,55,16S51.373,16.729,50.05,18.051z"/><path d="M50.341,13.049c-1.982-2.145-4.285-3.914-6.877-5.254C42.646,6.146,40.962,5,39,5c-0.245,0-0.489,0.02-0.736,0.061   C36.973,2.6,34.168,1,31,1c-3.19,0-6.061,1.664-7.324,4.191c-1.413,0.383-2.54,1.352-3.158,2.612   c-2.347,1.216-4.46,2.791-6.314,4.675C13.772,12.174,13.252,12,12.719,12h-0.116c-0.985,0-1.87,0.547-2.311,1.428   c-0.099,0.199-0.299,0.322-0.521,0.322H9.656c-0.153,0-0.303-0.063-0.413-0.172l-0.822-0.82c-0.108-0.109-0.171-0.26-0.171-0.413   v-0.116c0-0.223,0.124-0.422,0.323-0.521C9.453,11.266,10,10.381,10,9.396V9.28c0-0.679-0.275-1.345-0.756-1.826L7.701,5.912   C6.543,4.754,4.514,4.691,3.242,5.975L2.03,7.412C1.366,8.201,1,9.204,1,10.234c0,0.649,0.148,1.302,0.463,1.959   c1.675,3.33,4.368,6.099,7.593,7.882C7.697,23.209,7,26.541,7,30c0,1.043,0.086,2.085,0.215,3.117C7.467,33.049,7.727,33,8,33   h1.214C9.085,32.007,9,31.005,9,30c0-3.176,0.638-6.236,1.884-9.113C11.192,20.958,11.507,21,11.825,21   c0.992,0,1.958-0.353,2.717-0.992l1.546-1.307C16.676,18.112,17,17.331,17,16.5s-0.324-1.612-0.912-2.201l-0.44-0.439   c1.324-1.343,2.786-2.522,4.388-3.499C20.225,12.947,22.367,15,25,15h14c2.631,0,4.772-2.05,4.963-4.634   c1.693,1.032,3.228,2.285,4.608,3.723c-0.47,0.34-0.926,0.709-1.349,1.132l1.414,1.414c3.51-3.51,9.219-3.51,12.729,0l1.414-1.414   C59.419,11.863,54.415,11.147,50.341,13.049z"/></g><text x="0" y="79" fill="#000000" font-size="5px" font-weight="bold" font-family="'Helvetica Neue', Helvetica, Arial-Unicode, Arial, Sans-serif">Created by Eucalyp</text><text x="0" y="84" fill="#000000" font-size="5px" font-weight="bold" font-family="'Helvetica Neue', Helvetica, Arial-Unicode, Arial, Sans-serif">from the Noun Project</text></svg>